<?xml version="1.0" standalone="no"?>
<!DOCTYPE svg PUBLIC "-//W3C//DTD SVG 20010904//EN"
 "http://www.w3.org/TR/2001/REC-SVG-20010904/DTD/svg10.dtd">
<svg version="1.0" xmlns="http://www.w3.org/2000/svg"
 width="503.000000pt" height="251.000000pt" viewBox="0 0 503.000000 251.000000"
 preserveAspectRatio="xMidYMid meet">

<g transform="translate(0.000000,251.000000) scale(0.100000,-0.100000)"
fill="#000000" stroke="none">
<path d="M1150 2438 c0 -26 43 -121 85 -189 l27 -44 -53 51 c-117 112 -199
155 -199 104 0 -30 54 -145 95 -201 19 -27 33 -49 30 -49 -2 0 -39 21 -82 46
-87 52 -158 69 -169 40 -9 -23 22 -89 69 -148 20 -26 37 -50 37 -53 0 -3 -17
3 -37 14 -21 10 -49 21 -63 25 -14 3 -6 -3 17 -13 23 -11 67 -36 99 -56 31
-20 60 -35 66 -33 6 2 -18 34 -52 72 -63 70 -130 166 -130 187 0 26 79 0 171
-56 64 -40 125 -89 191 -156 66 -65 92 -87 81 -66 -9 18 -47 61 -84 97 -87 84
-247 336 -226 357 31 30 239 -167 326 -309 12 -21 24 -38 27 -38 8 0 -13 41
-84 160 -108 180 -149 270 -124 270 19 0 89 -59 133 -111 131 -156 232 -328
354 -609 16 -36 34 -72 41 -80 8 -9 11 -34 9 -65 -3 -32 -1 -43 4 -30 14 34
20 95 10 95 -15 0 -10 47 6 54 35 13 75 -65 75 -148 0 -22 -5 -79 -11 -128 -9
-68 -9 -106 1 -166 16 -100 54 -201 91 -243 l29 -34 -19 35 c-11 19 -27 51
-35 71 l-15 37 119 60 c128 66 184 80 247 63 59 -16 91 -46 104 -96 6 -24 22
-54 35 -66 13 -12 24 -25 24 -28 0 -4 -25 -7 -54 -7 -96 -2 -125 -36 -150
-182 -27 -152 -90 -232 -300 -382 -65 -46 -125 -98 -137 -117 -20 -33 -54 -44
-61 -21 -3 8 -13 6 -34 -9 -38 -26 -121 -63 -145 -63 -10 0 -21 -4 -24 -10 -3
-5 -12 -10 -18 -9 -9 0 -9 2 1 6 6 2 12 9 12 14 0 5 -23 0 -50 -11 -62 -25
-63 -25 -55 0 3 11 4 20 0 20 -3 0 -35 -31 -71 -70 -71 -75 -166 -132 -186
-112 -16 16 5 38 62 67 83 42 239 193 274 265 4 8 -5 -1 -21 -20 -68 -85 -163
-175 -229 -216 -39 -24 -74 -44 -77 -44 -4 0 -24 -12 -46 -28 -47 -34 -119
-67 -128 -59 -20 21 95 135 121 120 6 -3 8 -3 4 2 -4 4 19 24 50 45 31 20 75
54 97 74 l40 37 -45 -29 c-68 -44 -107 -63 -195 -93 -44 -16 -73 -28 -64 -29
9 0 35 7 58 15 22 8 41 12 41 10 0 -11 -104 -56 -171 -75 -88 -24 -127 -25
-157 -5 -20 14 -21 14 -16 0 13 -33 113 -32 217 2 31 11 57 18 57 15 0 -2 -11
-17 -25 -34 -54 -64 -18 -85 69 -40 51 27 62 29 69 17 20 -36 102 0 187 81
l56 53 77 5 c74 5 183 38 231 72 15 10 23 11 33 2 10 -8 20 -8 39 1 14 6 38
11 53 11 16 0 34 7 41 15 7 8 21 15 31 15 11 0 24 11 31 24 l11 25 30 -29 c27
-25 34 -27 47 -16 8 8 25 17 38 20 17 6 22 15 24 47 1 21 2 47 2 56 1 10 -9
19 -23 23 -39 9 -34 23 25 63 60 42 127 120 150 175 8 20 21 77 28 128 21 139
38 158 134 152 69 -4 78 13 34 64 -16 18 -32 46 -36 62 -24 98 -126 139 -251
102 -26 -8 -83 -35 -126 -60 -43 -25 -83 -46 -89 -46 -15 0 -36 53 -49 125 -9
45 -9 91 0 185 13 139 7 184 -34 234 -17 21 -32 29 -53 28 -29 -1 -33 5 -84
115 -122 262 -291 501 -424 601 -38 29 -66 29 -66 0z m770 -1937 c0 -5 -7 -12
-16 -15 -14 -5 -15 -4 -4 9 14 17 20 19 20 6z m75 -21 c-3 -5 -21 -10 -38 -11
l-32 -1 33 -14 c40 -18 41 -38 2 -57 -26 -13 -31 -13 -42 0 -10 13 -8 14 12
11 33 -4 37 20 4 32 -41 16 -93 -5 -136 -53 -26 -30 -40 -39 -47 -31 -16 15
40 69 92 88 23 8 60 22 82 30 46 18 79 20 70 6z m-151 -85 c-4 -8 -10 -15 -15
-15 -4 0 -6 7 -3 15 4 8 10 15 15 15 4 0 6 -7 3 -15z"/>
<path d="M4632 2417 c-5 -6 -29 -57 -52 -112 -108 -255 -195 -398 -329 -538
-109 -115 -280 -260 -298 -253 -8 3 -19 6 -24 6 -5 0 -9 12 -9 26 0 18 -6 28
-21 31 -12 4 -18 11 -15 20 17 44 17 65 2 82 -11 13 -15 27 -11 44 5 19 1 30
-14 44 -12 9 -21 25 -21 34 0 28 -11 49 -26 49 -10 0 -13 7 -8 24 7 29 -11 66
-32 66 -9 0 -14 8 -13 23 4 49 -2 68 -26 79 -16 7 -25 19 -25 34 0 36 -21 74
-44 80 -12 3 -29 19 -39 35 -13 23 -23 30 -42 27 -19 -2 -29 3 -38 22 -15 29
-48 37 -66 16 -12 -14 -17 -12 -41 14 -31 33 -57 39 -67 14 -3 -8 2 -50 11
-92 37 -164 31 -375 -15 -567 -24 -101 -24 -204 0 -273 16 -47 17 -52 2 -46
-137 58 -201 64 -278 27 -39 -18 -73 -65 -73 -100 0 -13 -11 -30 -26 -39 -22
-15 -54 -61 -54 -79 0 -4 38 -4 85 0 104 9 97 14 208 -149 143 -209 255 -310
393 -356 60 -20 124 -67 124 -91 0 -5 20 -6 44 -3 24 4 51 2 61 -3 12 -7 26
-6 44 3 14 8 39 14 54 14 l28 0 -20 -27 c-31 -45 -35 -69 -12 -92 12 -12 32
-21 46 -21 18 0 25 -5 25 -19 0 -26 37 -51 76 -51 28 0 34 -5 44 -34 12 -38
26 -46 74 -46 25 0 35 -6 44 -25 16 -35 67 -58 111 -51 20 4 61 8 91 9 61 3
94 17 110 48 6 11 15 17 20 14 27 -16 120 49 120 84 0 6 11 21 25 35 31 31 33
83 6 113 -20 21 -20 21 0 39 33 30 17 72 -36 88 -13 4 -21 15 -22 33 -1 29
-35 63 -62 63 -10 0 -21 13 -26 32 -8 26 -19 36 -51 47 -40 14 -46 13 -135
-19 -52 -19 -113 -37 -136 -40 -39 -6 -43 -5 -54 22 -17 40 0 58 51 51 35 -5
41 -2 57 24 10 16 24 28 31 25 27 -9 62 8 68 33 4 18 13 25 31 25 35 0 62 17
73 46 6 14 17 24 30 24 30 0 60 35 60 73 0 17 7 41 15 51 8 11 15 27 15 36 0
9 14 29 30 45 17 16 30 37 30 48 0 10 16 33 35 51 24 23 35 42 35 62 0 18 11
40 32 61 20 21 32 43 33 66 1 18 10 46 21 61 10 16 19 52 21 80 2 28 5 65 6
82 1 18 9 40 18 50 23 27 32 60 20 81 -7 13 -4 24 10 42 20 25 26 95 9 106 -6
4 -2 21 10 45 24 47 26 83 5 100 -13 11 -14 8 -9 -17 13 -67 -97 -200 -246
-297 -81 -53 -110 -76 -70 -56 53 28 140 92 209 154 39 36 76 66 81 66 21 0
21 -31 0 -75 -21 -43 -103 -115 -172 -151 -15 -8 -28 -17 -28 -20 0 -9 74 36
129 77 29 22 53 34 57 28 23 -38 -66 -128 -186 -189 -41 -22 -71 -39 -67 -40
13 0 130 61 164 86 40 30 53 30 53 0 0 -33 -34 -72 -94 -106 -28 -17 -46 -30
-40 -30 5 0 31 13 57 30 53 33 72 38 63 14 -3 -9 -6 -19 -6 -23 0 -13 -52 -62
-82 -77 -16 -8 -67 -25 -115 -39 -49 -13 -77 -24 -63 -24 21 0 148 39 203 63
30 14 22 -45 -10 -76 -41 -37 -66 -48 -162 -68 -47 -10 -74 -19 -60 -19 14 -1
61 8 104 19 43 11 80 20 82 20 1 0 3 -11 3 -24 0 -26 -51 -76 -77 -76 -12 0
-13 -3 -4 -14 9 -11 10 -20 1 -35 -19 -37 -43 -42 -120 -26 -39 8 -79 15 -88
14 -9 -1 12 -7 48 -15 113 -24 110 -23 110 -48 0 -12 -9 -31 -19 -40 -18 -16
-22 -16 -76 -1 -31 9 -59 15 -61 12 -3 -2 23 -12 56 -21 65 -19 79 -34 62 -70
-18 -40 -47 -38 -140 11 -99 52 -104 49 -10 -6 64 -37 79 -60 58 -86 -22 -26
-76 -18 -117 17 l-38 33 33 -38 c42 -50 40 -81 -6 -85 -27 -3 -41 5 -95 55
-58 53 -59 54 -14 7 49 -51 60 -90 33 -113 -20 -17 -72 5 -85 37 -7 15 -21 38
-32 52 -14 17 -12 9 8 -27 22 -42 26 -57 17 -70 -27 -43 -89 -20 -123 45 -28
51 -26 33 1 -24 22 -45 23 -46 4 -60 -29 -21 -54 -17 -83 14 -21 22 -24 23
-14 5 23 -45 73 -55 113 -24 16 13 29 17 39 10 8 -5 24 -9 35 -9 16 0 23 -8
28 -31 3 -18 25 -50 50 -75 34 -35 50 -44 77 -44 l34 0 -42 19 c-42 20 -83 54
-83 70 0 5 19 11 43 14 23 2 75 16 115 31 92 33 135 34 156 4 23 -33 20 -48
-11 -49 -16 -1 -1 -5 31 -9 65 -8 91 -29 82 -66 -5 -17 2 -24 34 -37 22 -8 43
-23 47 -33 8 -22 -21 -44 -61 -44 l-31 -1 38 -20 c43 -23 62 -56 53 -93 -10
-40 -50 -45 -111 -12 -34 19 -42 21 -25 7 14 -11 37 -26 53 -32 15 -7 27 -19
27 -30 0 -26 -36 -56 -72 -61 -27 -4 -39 3 -96 61 l-64 66 56 -66 56 -66 -21
-27 c-16 -21 -29 -26 -63 -26 -42 0 -44 1 -61 46 -9 25 -19 43 -21 41 -2 -2 3
-20 11 -40 19 -46 20 -43 -13 -55 -66 -23 -117 12 -127 85 -9 65 -13 75 -14
31 -1 -32 -4 -37 -32 -43 -49 -11 -72 17 -66 80 4 43 3 46 -6 23 -8 -22 -18
-28 -40 -28 -46 0 -67 17 -67 53 0 18 5 38 12 45 9 9 9 12 0 12 -7 0 -15 -7
-18 -15 -3 -8 -14 -17 -24 -20 -53 -17 -70 47 -23 85 34 26 128 27 118 1 -5
-13 -4 -14 6 -3 18 17 108 15 143 -3 16 -9 31 -13 34 -10 13 13 -73 33 -168
40 -129 8 -170 21 -170 51 0 24 -29 41 -41 23 -10 -17 -31 27 -24 51 10 33
-20 35 -60 3 -23 -18 -34 -34 -31 -46 4 -15 -1 -17 -32 -11 -120 22 -241 82
-339 169 -29 25 -101 114 -160 197 -59 83 -118 157 -131 166 -16 10 -39 13
-80 10 -37 -3 -49 -2 -34 3 59 23 68 29 32 23 -19 -3 -51 -16 -70 -27 l-35
-21 27 34 c19 25 33 34 50 32 18 -2 20 0 8 8 -10 6 -11 10 -2 10 6 0 12 11 12
25 0 69 60 115 149 115 66 0 115 -20 233 -97 54 -34 117 -72 140 -84 38 -19
41 -23 23 -30 -11 -4 -14 -8 -7 -8 24 -2 86 29 137 68 31 23 76 74 112 127 66
96 119 151 253 261 111 92 243 230 309 323 62 88 139 239 206 403 41 100 50
115 63 105 20 -17 11 -123 -18 -208 -49 -147 -108 -253 -194 -350 -20 -22 -23
-27 -7 -15 25 21 153 181 234 294 27 36 66 103 88 149 40 84 63 102 71 57 17
-86 -45 -212 -175 -359 l-99 -111 87 90 c47 50 127 141 177 203 89 110 112
128 125 96 19 -49 -76 -202 -206 -332 -67 -68 -73 -76 -28 -38 32 27 81 77
109 110 28 34 58 66 68 73 28 20 72 129 68 171 -5 57 -35 55 -88 -5 -23 -26
-39 -39 -35 -28 12 32 18 112 11 140 -5 20 -12 26 -29 23 -16 -2 -35 -27 -72
-98 -45 -85 -132 -220 -142 -220 -2 0 6 18 16 39 56 109 81 309 42 330 -13 8
-22 7 -29 -2z m-1181 -202 c12 -27 19 -33 19 -20 0 24 26 65 41 65 6 0 17 -16
25 -36 11 -27 18 -34 27 -25 33 33 59 -7 60 -93 0 -44 1 -49 4 -19 5 54 25 72
47 41 22 -31 20 -103 -4 -180 -11 -34 -20 -65 -19 -68 0 -15 28 53 40 98 10
40 17 52 32 52 17 0 19 -6 15 -52 -3 -29 -9 -62 -13 -73 -7 -16 -5 -16 12 4
22 27 53 23 53 -7 0 -19 -23 -68 -54 -114 -10 -16 -16 -28 -13 -28 2 0 16 18
31 40 29 43 61 53 71 20 7 -21 -6 -52 -39 -90 -19 -22 -18 -22 10 3 16 15 38
27 47 27 31 0 18 -40 -30 -92 -43 -46 -44 -49 -13 -26 19 15 44 28 55 30 31 5
32 -42 1 -79 l-25 -29 30 4 c37 5 49 -20 23 -49 -18 -20 -18 -20 9 -14 20 6
28 3 34 -10 4 -13 -4 -28 -30 -52 -21 -18 -37 -35 -37 -38 0 -3 -24 -43 -54
-89 -33 -51 -73 -98 -102 -121 -43 -32 -54 -36 -89 -31 -24 4 -68 26 -109 53
-57 39 -73 57 -95 103 -23 49 -26 67 -26 170 0 84 6 144 24 224 21 95 23 127
18 245 -3 93 -12 163 -26 220 -26 97 -22 124 11 95 11 -11 29 -37 39 -59z
m424 -1554 c3 -6 -2 -14 -11 -19 -16 -9 -15 -11 2 -36 15 -21 25 -25 48 -21
24 4 27 3 16 -10 -18 -22 -45 -18 -64 8 -16 21 -16 13 -1 -25 5 -13 2 -18 -9
-18 -9 0 -16 6 -16 13 0 8 -4 7 -11 -3 -8 -11 -12 -12 -16 -3 -3 9 -10 10 -24
3 -14 -8 -23 -6 -39 10 -24 24 -14 27 12 3 11 -9 18 -11 18 -5 0 7 6 11 13 10
8 -2 11 7 10 25 -2 20 6 36 25 52 30 27 38 30 47 16z m32 -117 c-3 -3 -12 -4
-19 -1 -8 3 -5 6 6 6 11 1 17 -2 13 -5z"/>
<path d="M3481 2084 c0 -11 3 -14 6 -6 3 7 2 16 -1 19 -3 4 -6 -2 -5 -13z"/>
<path d="M3552 2065 c0 -16 2 -22 5 -12 2 9 2 23 0 30 -3 6 -5 -1 -5 -18z"/>
<path d="M3536 1974 c-4 -31 -5 -59 -2 -61 2 -3 8 21 11 52 4 31 5 58 3 61 -3
2 -8 -21 -12 -52z"/>
<path d="M3606 1989 c-4 -23 -5 -44 -2 -46 2 -2 7 14 11 37 4 23 5 43 2 46 -2
3 -7 -14 -11 -37z"/>
<path d="M774 2026 c-6 -26 5 -52 44 -105 19 -25 25 -45 23 -71 -1 -26 6 -47
28 -80 l30 -45 -32 -5 c-27 -4 -32 -10 -35 -35 -2 -24 5 -39 33 -68 l36 -38
-30 -10 c-55 -19 -65 -61 -26 -107 29 -34 31 -42 10 -42 -8 0 -22 -11 -30 -24
-19 -28 -12 -47 28 -84 22 -21 23 -27 14 -52 -8 -21 -8 -35 0 -52 20 -42 23
-59 13 -78 -7 -14 -7 -25 2 -39 7 -11 9 -24 4 -28 -13 -13 -359 -16 -433 -4
-37 6 -98 21 -136 33 -60 19 -69 20 -83 7 -13 -14 -12 -18 7 -43 21 -26 21
-28 3 -23 -51 16 -115 29 -119 25 -5 -5 175 -55 225 -63 l35 -5 -39 15 c-51
20 -106 62 -106 82 0 17 -4 17 117 -16 110 -30 262 -45 405 -38 136 7 145 4
125 -41 -10 -23 4 -67 37 -110 6 -8 9 -31 7 -52 -1 -21 2 -41 8 -44 11 -7 30
-48 49 -104 12 -38 4 -45 -50 -40 -25 2 -32 7 -30 20 2 14 -3 17 -26 12 -34
-7 -61 18 -44 39 9 10 0 13 -41 12 -44 0 -52 3 -51 18 2 20 5 20 -35 6 -42
-15 -84 -4 -77 19 5 15 -1 17 -49 16 -55 -2 -80 11 -54 27 9 6 0 9 -28 9 -48
0 -63 15 -37 36 17 13 14 14 -36 8 -108 -14 -200 0 -220 34 -5 9 -9 13 -10 7
0 -39 66 -67 158 -67 64 1 78 -2 90 -19 7 -10 22 -19 33 -19 11 0 27 -7 35
-15 9 -8 30 -15 48 -15 19 0 46 -10 66 -25 26 -19 42 -24 65 -19 22 4 35 1 44
-10 8 -9 28 -16 45 -16 20 0 36 -7 44 -20 7 -11 23 -20 37 -20 14 0 29 -8 35
-20 8 -14 21 -20 48 -20 20 0 45 -7 55 -14 12 -9 32 -12 58 -9 25 4 39 2 39
-6 0 -16 51 -14 69 3 10 9 22 12 29 7 18 -11 -17 -33 -111 -70 -161 -64 -365
-106 -582 -120 l-120 -8 102 -2 c185 -2 460 50 627 119 47 20 107 56 151 91
67 54 116 77 99 47 -4 -7 25 18 65 57 41 40 69 75 66 83 -3 7 0 23 7 35 6 12
12 31 14 42 1 11 6 29 10 39 6 16 4 18 -9 13 -22 -8 -23 21 -2 49 22 29 18 40
-5 11 -20 -26 -26 -62 -12 -71 10 -6 3 -74 -9 -82 -5 -3 -9 -17 -9 -31 0 -27
-52 -83 -104 -110 -27 -14 -28 -14 -22 2 4 10 -11 2 -33 -18 -40 -36 -91 -67
-111 -67 -5 0 -10 7 -10 16 0 12 -7 10 -31 -10 -34 -29 -49 -33 -49 -12 0 10
-9 14 -27 13 -20 -1 -31 4 -37 20 -6 12 -18 24 -28 26 -10 3 -23 18 -29 34 -6
15 -15 36 -20 45 -5 10 -9 23 -9 29 0 7 -8 17 -17 24 -14 11 -15 18 -6 48 9
30 8 37 -4 41 -10 4 -14 15 -11 30 4 18 0 26 -13 29 -16 4 -18 15 -17 74 1 37
-1 73 -4 79 -4 6 0 23 8 39 11 21 12 30 3 36 -6 4 -9 11 -5 17 3 5 -1 15 -9
22 -20 17 -19 47 3 59 15 9 13 14 -20 45 -21 19 -38 44 -38 55 0 28 35 44 79
38 l36 -6 -25 17 c-58 40 -91 75 -88 96 4 27 43 46 97 46 l44 0 -61 39 c-72
47 -92 76 -68 99 13 13 24 14 65 6 l50 -10 -60 64 c-47 50 -59 70 -57 90 2 19
8 27 21 26 13 -1 5 11 -26 45 -80 85 -85 117 -20 124 l38 4 -42 1 c-37 2 -43
-1 -49 -22z m269 -1401 c-4 -15 -36 -12 -41 3 -3 9 3 13 19 10 13 -1 23 -7 22
-13z"/>
<path d="M4540 1878 c0 -6 -8 -20 -17 -31 -17 -19 -17 -20 5 -8 18 10 33 51
17 51 -3 0 -5 -5 -5 -12z"/>
<path d="M900 1867 c0 -2 15 -16 33 -33 l32 -29 -29 33 c-28 30 -36 37 -36 29z"/>
<path d="M4615 1814 l-30 -26 33 22 c17 12 32 23 32 26 0 7 -4 5 -35 -22z"/>
<path d="M4455 1778 l-40 -43 43 40 c39 36 47 45 39 45 -2 0 -21 -19 -42 -42z"/>
<path d="M4540 1767 l-35 -41 38 28 c20 16 37 35 37 42 0 18 0 19 -40 -29z"/>
<path d="M4384 1718 l-19 -23 23 19 c21 18 27 26 19 26 -2 0 -12 -10 -23 -22z"/>
<path d="M4550 1700 c-6 -11 -8 -20 -6 -20 3 0 10 9 16 20 6 11 8 20 6 20 -3
0 -10 -9 -16 -20z"/>
<path d="M4665 1670 c-27 -16 -46 -30 -42 -30 10 0 97 50 97 56 0 6 -2 5 -55
-26z"/>
<path d="M4490 1539 c-19 -17 -26 -26 -15 -21 18 9 64 52 54 52 -2 0 -20 -14
-39 -31z"/>
<path d="M1680 1490 c-12 -12 -18 -25 -15 -29 2 -5 -2 -14 -10 -21 -7 -6 -12
-17 -9 -25 3 -7 1 -16 -5 -20 -14 -8 -14 -25 -1 -25 6 0 10 5 10 12 0 6 7 20
17 30 13 14 13 18 2 18 -10 1 -8 5 5 15 13 10 15 15 6 15 -9 0 -5 9 10 25 28
30 19 34 -10 5z"/>
<path d="M4460 1475 c-14 -8 -20 -14 -14 -15 5 0 19 7 30 15 24 18 16 19 -16
0z"/>
<path d="M1705 1460 c-3 -5 -2 -10 4 -10 5 0 13 5 16 10 3 6 2 10 -4 10 -5 0
-13 -4 -16 -10z"/>
<path d="M4538 1403 c6 -2 18 -2 25 0 6 3 1 5 -13 5 -14 0 -19 -2 -12 -5z"/>
<path d="M1713 1374 c-15 -24 -16 -29 -2 -53 12 -20 13 -33 6 -49 -6 -14 -7
-33 0 -54 l9 -33 6 27 c3 17 1 25 -5 21 -6 -4 -7 5 -3 23 3 16 7 45 9 66 1 28
-1 34 -10 26 -18 -15 -16 3 3 30 8 12 13 22 10 22 -3 0 -13 -12 -23 -26z"/>
<path d="M4390 1390 c-23 -7 -23 -8 -3 -9 12 -1 25 4 28 9 3 6 5 10 3 9 -2 -1
-14 -5 -28 -9z"/>
<path d="M4488 1393 c7 -3 16 -2 19 1 4 3 -2 6 -13 5 -11 0 -14 -3 -6 -6z"/>
<path d="M1655 1350 c-11 -12 -15 -28 -12 -41 3 -12 -1 -32 -9 -45 -11 -16
-13 -28 -6 -40 7 -13 5 -25 -6 -41 -11 -18 -12 -27 -3 -36 8 -8 11 -6 11 10 0
12 12 36 27 55 15 18 20 27 10 19 -32 -25 -41 2 -13 37 30 34 32 44 11 36 -20
-8 -19 15 1 44 19 27 13 29 -11 2z"/>
<path d="M4388 1303 c7 -3 16 -2 19 1 4 3 -2 6 -13 5 -11 0 -14 -3 -6 -6z"/>
<path d="M4458 1303 c18 -2 45 -2 60 0 15 2 0 4 -33 4 -33 0 -45 -2 -27 -4z"/>
<path d="M3107 1257 c-3 -8 -2 -20 3 -27 11 -18 42 -4 38 17 -4 22 -34 29 -41
10z"/>
<path d="M3860 1198 c-16 -27 -29 -63 -17 -47 15 19 47 79 43 79 -4 0 -15 -15
-26 -32z"/>
<path d="M4418 1193 c7 -3 16 -2 19 1 4 3 -2 6 -13 5 -11 0 -14 -3 -6 -6z"/>
<path d="M2180 1170 c-9 -16 -9 -25 -1 -33 16 -16 46 4 46 29 0 27 -31 29 -45
4z"/>
<path d="M1734 1094 c-5 -19 -9 -22 -15 -12 -6 9 -9 9 -9 1 0 -6 5 -15 10 -18
6 -3 10 -15 10 -25 0 -11 8 -24 19 -29 10 -6 26 -26 35 -46 9 -19 19 -35 22
-35 9 0 -9 55 -23 68 -7 7 -13 21 -13 30 0 14 -2 15 -9 3 -13 -20 -26 29 -17
64 4 14 4 25 1 25 -2 0 -8 -12 -11 -26z"/>
<path d="M4415 1110 c11 -5 27 -9 35 -9 9 0 8 4 -5 9 -11 5 -27 9 -35 9 -9 0
-8 -4 5 -9z"/>
<path d="M1660 1096 c0 -8 7 -16 15 -20 8 -3 15 -1 15 4 0 6 -5 10 -11 10 -5
0 -7 5 -4 10 3 6 1 10 -4 10 -6 0 -11 -6 -11 -14z"/>
<path d="M2275 1098 c11 -6 27 -16 35 -22 9 -6 5 -1 -8 12 -13 12 -28 22 -35
22 -7 0 -3 -6 8 -12z"/>
<path d="M1563 1025 c-3 -9 -3 -18 -1 -21 3 -3 8 4 11 16 6 23 -1 27 -10 5z"/>
<path d="M90 1020 c0 -12 51 -47 97 -66 46 -20 142 -34 149 -22 3 4 -8 8 -24
8 -45 0 -123 26 -174 59 -27 17 -48 26 -48 21z"/>
<path d="M1125 834 l-30 -26 33 22 c17 12 32 23 32 26 0 7 -4 5 -35 -22z"/>
<path d="M1190 814 c0 -12 -10 -29 -22 -38 -23 -16 -23 -16 -1 -6 12 5 25 14
28 20 3 5 13 7 23 4 13 -5 14 -4 3 4 -7 5 -17 16 -22 23 -6 11 -9 9 -9 -7z"/>
<path d="M1184 758 l-19 -23 23 19 c21 18 27 26 19 26 -2 0 -12 -10 -23 -22z"/>
<path d="M1123 728 c-15 -20 -25 -38 -20 -38 3 0 12 11 21 25 17 26 16 35 -1
13z"/>
<path d="M4618 503 c7 -3 16 -2 19 1 4 3 -2 6 -13 5 -11 0 -14 -3 -6 -6z"/>
<path d="M367 379 c3 -10 12 -19 19 -19 20 0 17 13 -5 27 -16 10 -18 9 -14 -8z"/>
<path d="M565 350 c-4 -7 3 -8 22 -4 38 9 42 14 10 14 -14 0 -29 -5 -32 -10z"/>
<path d="M364 325 c11 -8 33 -15 49 -15 21 0 28 -4 24 -14 -10 -25 21 -39 98
-44 54 -3 72 -8 69 -17 -8 -20 15 -29 74 -27 l55 1 -19 -21 c-16 -18 -12 -17
21 5 22 15 60 34 85 42 42 14 138 83 98 71 -23 -7 -160 -24 -240 -30 -52 -4
-71 -2 -83 10 -8 9 -15 11 -15 5 0 -5 8 -15 18 -20 13 -8 6 -10 -33 -11 -53 0
-139 20 -117 27 25 9 12 33 -17 33 -16 0 -42 5 -58 10 -26 9 -27 9 -9 -5z
m514 -51 c-35 -35 -268 -73 -268 -43 0 18 67 39 127 40 32 0 76 4 98 8 59 13
61 12 43 -5z"/>
<path d="M4370 335 c0 -5 5 -17 10 -25 5 -8 10 -10 10 -5 0 6 -5 17 -10 25 -5
8 -10 11 -10 5z"/>
<path d="M825 220 c-12 -20 7 -30 53 -28 l47 1 -45 6 c-28 4 -44 11 -42 19 3
15 -4 16 -13 2z"/>
</g>
</svg>
