<?xml version="1.0" standalone="no"?>
<!DOCTYPE svg PUBLIC "-//W3C//DTD SVG 20010904//EN"
 "http://www.w3.org/TR/2001/REC-SVG-20010904/DTD/svg10.dtd">
<svg version="1.0" xmlns="http://www.w3.org/2000/svg"
 width="600.000000pt" height="600.000000pt" viewBox="0 0 600.000000 600.000000"
 preserveAspectRatio="xMidYMid meet">

<g transform="translate(0.000000,600.000000) scale(0.100000,-0.100000)"
fill="#000000" stroke="none">
<path d="M1620 4177 c0 -23 52 -135 91 -197 20 -32 17 -30 -32 16 -118 112
-199 154 -199 104 0 -27 41 -116 84 -184 20 -31 36 -58 36 -61 0 -3 -35 16
-77 41 -87 52 -158 69 -169 40 -9 -23 22 -89 69 -148 20 -26 37 -50 37 -53 0
-3 -22 6 -50 20 -27 14 -55 25 -62 24 -7 0 6 -9 29 -19 23 -10 67 -35 99 -55
31 -20 60 -35 66 -33 6 2 -18 34 -52 72 -63 70 -130 166 -130 187 0 26 79 0
171 -56 64 -40 125 -89 191 -156 60 -60 92 -86 82 -67 -8 16 -46 59 -84 96
-88 87 -247 338 -227 359 26 25 191 -121 281 -248 33 -46 64 -88 69 -94 13
-14 -46 97 -126 234 -65 112 -94 177 -84 188 12 11 78 -40 130 -100 123 -141
218 -298 329 -544 39 -87 75 -160 79 -163 4 -3 6 -28 4 -55 -3 -32 -1 -43 4
-30 14 34 20 95 10 95 -14 0 -11 48 4 53 22 8 44 -12 61 -53 19 -47 20 -102 5
-225 -18 -144 23 -327 91 -406 l29 -34 -28 55 c-16 30 -31 62 -33 71 -4 22
191 125 265 140 93 19 197 -30 197 -94 0 -13 14 -41 30 -62 17 -21 30 -38 30
-39 0 -1 -25 -2 -56 -2 -94 -2 -124 -41 -154 -203 -25 -136 -90 -216 -295
-362 -66 -46 -127 -98 -137 -116 -23 -38 -44 -48 -57 -25 -9 15 -11 15 -28 0
-28 -26 -192 -93 -202 -83 -2 3 1 5 7 5 7 0 12 4 12 10 0 5 -24 1 -52 -10 -64
-24 -61 -24 -53 0 3 11 4 20 0 20 -3 0 -35 -31 -71 -70 -71 -75 -166 -132
-186 -112 -16 16 5 38 62 67 83 42 239 193 274 265 4 8 -5 -1 -21 -20 -68 -85
-163 -175 -229 -216 -39 -24 -75 -44 -81 -44 -6 0 -16 -7 -24 -16 -14 -17
-121 -74 -139 -74 -5 0 -10 5 -10 11 0 27 48 73 138 133 97 64 204 150 137
110 -83 -50 -126 -70 -199 -95 -45 -16 -74 -28 -65 -29 9 0 35 7 58 15 61 21
50 8 -21 -25 -119 -55 -225 -73 -266 -45 -20 14 -21 14 -16 0 13 -33 113 -32
217 2 31 11 57 18 57 15 0 -2 -11 -17 -25 -34 -54 -64 -18 -85 69 -40 51 27
62 29 69 17 20 -36 95 -3 185 79 l59 55 77 5 c73 5 182 38 230 72 15 10 23 11
33 2 10 -8 20 -8 39 1 14 6 38 11 53 11 16 0 34 7 41 15 7 8 21 15 31 15 11 0
24 11 31 24 l11 25 30 -29 c27 -25 34 -27 47 -16 8 8 25 17 38 20 17 6 22 15
24 47 1 21 2 47 2 56 1 10 -9 19 -23 23 -39 9 -34 23 25 63 60 42 127 120 150
175 8 20 21 77 28 128 21 139 38 158 134 152 69 -4 78 13 34 64 -16 18 -32 46
-36 62 -24 98 -126 139 -251 102 -26 -8 -83 -35 -126 -60 -43 -25 -83 -46 -89
-46 -15 0 -36 53 -49 125 -9 45 -9 91 0 185 13 139 7 184 -34 234 -17 21 -32
29 -53 28 -29 -1 -33 5 -84 115 -122 262 -291 501 -424 601 -38 29 -66 29 -66
-1z m789 -1931 c-2 -2 -15 -9 -29 -15 -24 -11 -24 -11 -6 3 16 13 49 24 35 12z
m56 -26 c-3 -5 -21 -10 -38 -11 l-32 -1 33 -14 c40 -18 41 -38 2 -57 -25 -13
-31 -13 -41 -1 -9 11 -7 14 15 14 34 0 34 18 0 31 -40 15 -93 -6 -135 -54 -23
-26 -40 -37 -48 -32 -19 11 44 71 93 89 23 8 59 22 81 30 46 18 79 20 70 6z
m-151 -85 c-4 -8 -10 -15 -15 -15 -4 0 -6 7 -3 15 4 8 10 15 15 15 4 0 6 -7 3
-15z"/>
<path d="M5102 4157 c-5 -6 -30 -60 -55 -118 -107 -251 -191 -389 -320 -526
-112 -119 -285 -266 -304 -259 -8 3 -19 6 -24 6 -5 0 -9 12 -9 26 0 18 -6 28
-21 31 -12 4 -18 11 -15 20 17 44 17 65 2 82 -11 13 -15 27 -11 44 5 19 1 30
-14 44 -12 9 -21 28 -21 40 0 13 -8 30 -19 39 -10 9 -16 24 -14 34 6 24 -14
60 -33 60 -9 0 -14 8 -13 23 4 49 -2 68 -26 79 -16 7 -25 19 -25 34 0 36 -21
74 -44 80 -12 3 -29 19 -39 35 -13 23 -23 30 -42 27 -19 -2 -29 3 -38 22 -15
29 -48 37 -66 16 -12 -14 -17 -12 -41 14 -31 33 -57 39 -67 14 -3 -8 3 -52 13
-97 30 -131 26 -376 -9 -530 -31 -138 -34 -230 -8 -304 10 -29 17 -53 16 -53
-1 0 -30 12 -66 27 -116 47 -237 30 -280 -41 -10 -17 -19 -41 -19 -53 0 -13
-11 -30 -26 -39 -22 -15 -54 -61 -54 -79 0 -4 38 -4 85 0 104 9 97 14 208
-149 143 -209 255 -310 393 -356 60 -20 124 -67 124 -91 0 -5 20 -6 44 -3 24
4 51 2 61 -3 12 -7 26 -6 44 3 14 8 39 14 54 14 l28 0 -20 -27 c-31 -45 -35
-69 -12 -92 12 -12 32 -21 46 -21 18 0 25 -5 25 -19 0 -26 37 -51 76 -51 25 0
33 -5 38 -24 9 -38 34 -56 75 -56 30 0 40 -5 49 -25 16 -35 67 -58 111 -50 20
4 54 6 76 6 55 0 102 16 120 42 8 12 21 22 28 23 6 0 22 2 34 2 24 2 83 56 83
77 0 8 11 25 25 39 31 31 33 83 6 113 -20 21 -20 21 0 39 33 30 17 72 -36 88
-13 4 -21 15 -22 33 -1 30 -35 63 -63 63 -12 0 -20 10 -24 30 -4 23 -15 35
-42 46 -44 18 -76 14 -165 -22 -35 -15 -84 -30 -109 -35 l-45 -8 45 3 c25 2
78 15 118 30 87 31 132 33 155 8 27 -30 21 -50 -15 -55 -20 -2 -11 -4 25 -5
67 -2 103 -28 93 -66 -5 -20 0 -26 34 -39 81 -31 56 -83 -35 -73 l-50 5 55
-22 c61 -25 87 -58 76 -100 -8 -32 -45 -45 -84 -28 -25 11 -26 10 -8 -4 11 -8
23 -15 28 -15 4 0 8 -9 8 -20 0 -26 -34 -56 -71 -64 -26 -5 -37 2 -95 62 l-66
67 56 -66 56 -66 -21 -27 c-16 -21 -29 -26 -63 -26 -42 0 -44 1 -61 46 -9 25
-19 43 -21 41 -2 -2 3 -20 11 -40 19 -46 20 -43 -13 -55 -67 -23 -117 14 -131
98 -7 47 -9 50 -10 18 -1 -32 -5 -37 -32 -43 -49 -11 -72 17 -66 80 4 41 3 45
-5 23 -8 -22 -16 -28 -39 -28 -48 0 -69 16 -69 53 0 18 5 38 12 45 9 9 9 12 0
12 -7 0 -15 -7 -18 -15 -3 -8 -14 -17 -24 -20 -53 -17 -70 47 -23 85 34 26
128 27 118 1 -5 -13 -4 -14 6 -3 18 17 108 15 143 -3 16 -9 31 -13 34 -10 13
13 -73 33 -168 40 -129 8 -170 21 -170 51 0 24 -29 41 -41 23 -10 -17 -31 27
-24 51 10 33 -20 35 -59 3 -20 -15 -35 -35 -35 -43 1 -13 2 -13 6 0 7 23 61
62 74 54 9 -5 7 -11 -5 -20 -17 -12 -17 -14 1 -39 14 -20 24 -24 47 -20 24 4
27 3 16 -10 -19 -22 -42 -18 -68 13 l-23 27 16 -32 c19 -40 19 -43 0 -43 -8 0
-15 6 -15 13 0 8 -4 7 -11 -3 -8 -11 -12 -12 -16 -3 -3 9 -10 10 -24 3 -14 -8
-23 -6 -39 10 -11 11 -16 20 -11 20 5 0 14 -7 21 -15 9 -11 17 -12 31 -4 30
16 15 26 -67 44 -111 25 -220 85 -323 179 -18 17 -81 98 -139 179 -58 82 -116
156 -129 164 -17 11 -39 14 -81 11 -37 -3 -49 -2 -34 3 59 23 68 29 32 23 -19
-3 -48 -15 -63 -26 -39 -27 -43 -17 -8 21 20 21 35 29 48 25 15 -5 15 -4 3 5
-10 7 -11 11 -2 11 6 0 12 11 12 25 0 70 60 115 152 115 63 0 117 -23 241
-103 48 -31 106 -66 130 -78 37 -19 40 -23 22 -30 -11 -4 -14 -8 -7 -8 24 -2
86 30 138 69 30 23 72 69 100 112 64 97 107 143 239 253 276 232 384 379 526
715 66 157 85 172 83 65 -3 -140 -95 -346 -218 -485 -20 -22 -23 -27 -7 -15
25 21 153 181 234 294 27 36 66 103 88 149 40 84 63 102 71 57 17 -86 -45
-212 -175 -359 l-99 -111 87 90 c47 50 127 141 177 203 98 121 125 137 121 69
-4 -72 -81 -186 -213 -317 -61 -60 -65 -66 -22 -31 29 24 78 74 109 110 31 36
64 71 73 78 28 20 72 129 68 171 -5 57 -35 55 -88 -5 -23 -26 -39 -39 -35 -28
12 32 18 112 11 140 -5 20 -12 26 -29 23 -16 -2 -35 -27 -72 -98 -45 -85 -132
-220 -142 -220 -2 0 6 18 16 39 56 109 81 309 42 330 -13 8 -22 7 -29 -2z
m-1181 -202 c12 -27 19 -33 19 -20 0 24 26 65 41 65 6 0 17 -16 25 -36 11 -27
18 -34 27 -25 33 33 59 -7 60 -93 0 -44 1 -49 4 -19 5 54 25 72 47 41 22 -31
20 -103 -4 -180 -11 -34 -20 -65 -19 -68 0 -16 28 53 39 98 10 41 16 52 32 52
19 0 20 -5 16 -52 -3 -29 -9 -62 -13 -73 -7 -16 -5 -16 12 4 22 27 53 23 53
-7 0 -19 -23 -68 -54 -114 -10 -16 -16 -28 -13 -28 2 0 16 18 31 40 29 43 61
53 71 20 7 -21 -6 -52 -39 -90 -19 -22 -18 -22 10 3 70 63 88 13 22 -60 -36
-40 -38 -44 -13 -26 17 12 39 23 50 25 31 5 32 -42 1 -79 l-25 -29 30 4 c37 5
49 -20 23 -49 -18 -20 -18 -20 9 -14 20 6 28 3 34 -10 4 -13 -4 -28 -30 -52
-21 -18 -37 -35 -37 -38 0 -3 -24 -43 -54 -89 -54 -83 -131 -156 -166 -156
-34 0 -86 24 -146 66 -89 62 -109 111 -109 264 0 84 6 144 24 224 21 96 23
126 18 245 -4 87 -13 166 -27 220 -24 98 -21 124 12 95 11 -11 29 -37 39 -59z
m456 -1671 c-3 -3 -12 -4 -19 -1 -8 3 -5 6 6 6 11 1 17 -2 13 -5z"/>
<path d="M3952 3820 c0 -14 2 -19 5 -12 2 6 2 18 0 25 -3 6 -5 1 -5 -13z"/>
<path d="M4022 3810 c0 -19 2 -27 5 -17 2 9 2 25 0 35 -3 9 -5 1 -5 -18z"/>
<path d="M4006 3714 c-4 -31 -5 -59 -2 -61 2 -3 8 21 11 52 4 31 5 58 3 61 -3
2 -8 -21 -12 -52z"/>
<path d="M4076 3729 c-4 -23 -5 -44 -2 -46 2 -2 7 14 11 37 4 23 5 43 2 46 -2
3 -7 -14 -11 -37z"/>
<path d="M5426 3823 c13 -67 -99 -202 -246 -298 -84 -54 -116 -80 -55 -45 66
39 137 92 202 152 34 32 67 58 73 58 21 0 21 -31 0 -75 -21 -43 -103 -115
-172 -151 -15 -8 -28 -17 -28 -20 0 -9 74 36 129 77 52 39 68 37 57 -6 -7 -28
-95 -109 -148 -136 -21 -11 -38 -22 -38 -24 0 -8 61 24 97 51 40 30 53 30 53
0 0 -33 -34 -72 -94 -106 -28 -17 -46 -30 -40 -30 5 0 31 14 57 30 26 17 52
30 58 30 20 0 -3 -45 -41 -82 -37 -36 -114 -66 -250 -97 l-45 -10 50 5 c43 5
171 43 228 68 30 14 22 -45 -10 -76 -41 -37 -66 -48 -162 -68 -47 -10 -74 -19
-60 -19 14 -1 61 8 104 19 43 11 80 20 82 20 1 0 3 -11 3 -24 0 -26 -51 -76
-77 -76 -12 0 -13 -3 -4 -14 9 -11 10 -20 1 -35 -19 -37 -43 -42 -120 -26 -39
8 -79 15 -88 14 -9 -1 12 -7 48 -15 113 -24 110 -23 110 -48 0 -12 -9 -31 -19
-40 -18 -17 -23 -17 -74 -2 -79 23 -83 18 -7 -7 52 -18 66 -26 68 -45 2 -13
-1 -29 -8 -36 -23 -29 -51 -24 -136 20 -99 52 -113 52 -20 0 66 -37 87 -66 66
-91 -22 -26 -76 -18 -117 18 l-38 32 33 -38 c42 -50 40 -81 -6 -85 -27 -3 -41
5 -95 55 l-62 58 48 -52 c48 -53 59 -90 33 -112 -20 -17 -72 5 -85 37 -7 15
-21 38 -32 52 -14 17 -12 9 8 -27 22 -42 26 -57 17 -70 -27 -43 -89 -20 -123
45 -28 51 -26 33 1 -24 22 -45 23 -46 4 -60 -29 -21 -54 -17 -83 14 -21 22
-24 23 -14 5 23 -45 73 -55 113 -24 16 13 29 17 39 10 8 -5 24 -9 35 -9 16 0
23 -8 28 -31 3 -18 25 -50 50 -75 34 -35 50 -44 77 -44 l34 0 -41 19 c-50 23
-86 60 -103 107 -17 47 -3 64 48 57 34 -5 41 -2 56 21 12 18 26 26 45 26 31 0
60 23 60 46 0 8 10 14 26 14 36 0 63 17 74 46 6 14 17 24 30 24 30 0 60 35 60
73 0 17 7 41 15 51 8 11 15 27 15 36 0 9 14 29 30 45 17 16 30 37 30 48 0 10
16 33 35 51 24 23 35 42 35 62 0 18 11 40 32 61 20 21 32 43 33 66 1 18 10 46
21 61 10 16 19 52 21 80 2 28 5 65 6 82 1 18 9 40 18 50 23 27 32 61 20 81 -7
13 -5 23 6 35 19 21 30 103 14 112 -7 5 -5 19 9 46 24 47 26 83 5 100 -13 11
-14 8 -9 -17z"/>
<path d="M1244 3766 c-6 -26 5 -52 45 -105 18 -23 24 -43 22 -66 -3 -35 17
-83 43 -104 24 -20 19 -29 -16 -33 -28 -3 -33 -7 -36 -33 -2 -23 5 -39 34 -68
l36 -37 -31 -11 c-55 -19 -65 -61 -26 -107 29 -34 31 -42 10 -42 -8 0 -22 -11
-30 -24 -19 -28 -12 -47 28 -84 22 -21 23 -27 14 -52 -8 -21 -8 -35 0 -52 20
-42 23 -59 13 -78 -7 -14 -7 -25 2 -39 7 -11 9 -24 4 -28 -13 -13 -359 -16
-433 -4 -37 6 -98 21 -136 33 -60 19 -69 20 -83 7 -13 -14 -12 -18 7 -43 21
-26 21 -28 3 -23 -51 16 -115 29 -119 25 -5 -5 175 -55 225 -63 l35 -5 -39 15
c-51 20 -106 62 -106 82 0 17 -4 17 117 -16 110 -30 262 -45 405 -38 71 4 130
2 133 -3 3 -4 0 -20 -7 -34 -10 -22 -8 -33 11 -71 12 -24 26 -47 31 -50 5 -3
6 -21 3 -40 -4 -23 -1 -41 9 -53 24 -29 60 -127 50 -136 -3 -3 -23 -6 -44 -6
-31 0 -38 4 -38 20 0 16 -5 19 -28 14 -34 -7 -61 18 -44 39 9 10 0 13 -41 12
-44 0 -52 3 -51 18 2 20 5 20 -35 6 -42 -15 -84 -4 -77 19 5 15 -1 17 -49 16
-55 -2 -80 11 -54 27 9 6 0 9 -28 9 -48 0 -63 15 -37 36 17 13 14 14 -36 8
-109 -14 -220 5 -220 37 0 7 -3 9 -6 6 -10 -9 15 -36 49 -54 19 -10 57 -15
105 -15 64 1 78 -2 90 -19 7 -10 24 -19 36 -19 13 0 26 -7 30 -15 3 -10 19
-15 46 -15 28 0 47 -7 62 -22 16 -16 34 -22 63 -21 22 0 49 -6 60 -13 11 -8
31 -14 45 -14 14 0 31 -9 38 -20 7 -11 23 -20 37 -20 14 0 29 -8 35 -20 8 -14
21 -20 48 -20 20 0 45 -7 55 -14 12 -9 32 -12 58 -9 25 4 39 2 39 -6 0 -16 51
-14 69 3 10 9 22 12 29 7 18 -11 -17 -33 -111 -70 -161 -64 -365 -106 -582
-120 l-120 -8 102 -2 c185 -2 460 50 627 119 47 20 107 56 151 91 67 54 116
77 99 47 -4 -7 25 18 65 57 41 40 69 75 66 83 -3 7 0 23 7 35 6 12 12 31 14
42 1 11 6 29 10 39 6 16 4 18 -9 13 -23 -9 -23 20 0 53 l17 25 -22 -19 c-22
-19 -30 -60 -14 -70 10 -6 3 -74 -9 -82 -5 -3 -9 -18 -9 -33 0 -21 -11 -37
-42 -63 -24 -19 -54 -41 -67 -48 -22 -11 -23 -11 -17 6 4 12 -7 5 -31 -17 -37
-36 -91 -69 -113 -69 -5 0 -10 7 -10 16 0 12 -7 10 -31 -10 -34 -29 -49 -33
-49 -12 0 10 -9 14 -27 13 -20 -1 -31 4 -37 20 -6 12 -18 24 -28 26 -10 3 -23
18 -29 34 -6 15 -15 36 -20 45 -5 10 -9 23 -9 29 0 7 -8 17 -17 24 -14 11 -15
18 -6 48 9 30 8 37 -4 41 -10 4 -14 15 -11 30 4 18 0 26 -13 29 -16 4 -18 15
-17 74 1 37 -1 73 -4 79 -4 6 0 23 8 39 11 21 12 30 3 36 -6 4 -9 11 -5 17 3
5 -1 15 -9 22 -19 16 -19 39 1 61 14 16 14 19 -11 35 -14 9 -33 30 -41 45 -13
27 -13 29 11 45 18 11 37 15 63 11 l37 -6 -25 17 c-58 40 -91 75 -88 96 4 27
43 46 96 46 l44 0 -63 43 c-77 52 -90 70 -66 94 14 14 24 16 66 7 l50 -10 -60
64 c-47 50 -59 70 -57 90 2 19 8 27 21 26 13 -1 5 11 -26 45 -80 85 -85 117
-20 124 l38 4 -42 1 c-37 2 -43 -1 -49 -22z m269 -1401 c-4 -15 -36 -12 -41 3
-3 9 3 13 19 10 13 -1 23 -7 22 -13z"/>
<path d="M5011 3618 c0 -9 -40 -54 -88 -99 -49 -45 -72 -70 -53 -54 89 71 151
136 147 153 -4 15 -5 15 -6 0z"/>
<path d="M1370 3607 c0 -2 15 -16 33 -33 l32 -29 -29 33 c-28 30 -36 37 -36
29z"/>
<path d="M5099 3563 c-13 -16 -12 -17 4 -4 16 13 21 21 13 21 -2 0 -10 -8 -17
-17z"/>
<path d="M5010 3507 l-35 -41 38 28 c20 16 37 35 37 42 0 18 0 19 -40 -29z"/>
<path d="M5020 3440 c-6 -11 -8 -20 -6 -20 3 0 10 9 16 20 6 11 8 20 6 20 -3
0 -10 -9 -16 -20z"/>
<path d="M5135 3410 c-27 -16 -46 -30 -42 -30 10 0 97 50 97 56 0 6 -2 5 -55
-26z"/>
<path d="M4979 3403 c-13 -16 -12 -17 4 -4 9 7 17 15 17 17 0 8 -8 3 -21 -13z"/>
<path d="M5150 3335 c-14 -8 -20 -14 -15 -14 6 0 21 6 35 14 14 8 21 14 15 14
-5 0 -21 -6 -35 -14z"/>
<path d="M4960 3279 c-19 -17 -26 -26 -15 -21 18 9 64 52 54 52 -2 0 -20 -14
-39 -31z"/>
<path d="M2150 3230 c-12 -12 -18 -25 -15 -29 2 -5 -2 -14 -10 -21 -7 -6 -12
-17 -9 -25 3 -7 1 -16 -5 -20 -14 -8 -14 -25 -1 -25 6 0 10 5 10 12 0 6 7 20
17 30 13 14 13 18 2 18 -10 1 -8 5 5 15 13 10 15 15 6 15 -9 0 -5 9 10 25 28
30 19 34 -10 5z"/>
<path d="M4940 3220 c-19 -11 -31 -19 -27 -20 11 0 67 29 67 35 0 7 -1 7 -40
-15z"/>
<path d="M2180 3199 c0 -5 5 -7 10 -4 6 3 10 8 10 11 0 2 -4 4 -10 4 -5 0 -10
-5 -10 -11z"/>
<path d="M2184 3115 c-14 -21 -15 -31 -5 -51 6 -15 9 -40 6 -58 -4 -17 -2 -42
3 -55 l9 -25 5 27 c3 16 1 24 -5 20 -6 -4 -8 5 -3 23 3 16 8 46 10 67 3 30 1
35 -10 26 -19 -15 -18 1 2 29 8 12 13 22 10 22 -3 0 -13 -11 -22 -25z"/>
<path d="M4860 3130 c-23 -7 -23 -8 -3 -9 12 -1 25 4 28 9 3 6 5 10 3 9 -2 -1
-14 -5 -28 -9z"/>
<path d="M4958 3133 c7 -3 16 -2 19 1 4 3 -2 6 -13 5 -11 0 -14 -3 -6 -6z"/>
<path d="M2125 3090 c-11 -12 -15 -28 -12 -41 3 -12 -1 -32 -10 -46 -12 -18
-14 -29 -6 -42 7 -12 6 -22 -5 -39 -11 -17 -12 -26 -3 -35 8 -8 11 -6 11 10 0
12 12 36 27 55 15 18 20 27 10 19 -32 -25 -41 2 -13 37 30 34 32 44 11 36 -20
-8 -19 15 1 44 19 27 13 29 -11 2z"/>
<path d="M4858 3043 c7 -3 16 -2 19 1 4 3 -2 6 -13 5 -11 0 -14 -3 -6 -6z"/>
<path d="M4928 3043 c18 -2 45 -2 60 0 15 2 0 4 -33 4 -33 0 -45 -2 -27 -4z"/>
<path d="M3577 2997 c-3 -8 -2 -20 3 -27 11 -18 42 -4 38 17 -4 22 -34 29 -41
10z"/>
<path d="M4330 2938 c-16 -27 -29 -63 -17 -47 15 19 47 79 43 79 -4 0 -15 -15
-26 -32z"/>
<path d="M4888 2933 c7 -3 16 -2 19 1 4 3 -2 6 -13 5 -11 0 -14 -3 -6 -6z"/>
<path d="M2647 2908 c-8 -30 8 -46 31 -32 24 16 22 48 -4 52 -15 2 -23 -4 -27
-20z"/>
<path d="M2204 2834 c-5 -19 -9 -22 -15 -12 -6 9 -9 9 -9 1 0 -6 5 -15 10 -18
6 -3 10 -15 10 -25 0 -11 8 -24 19 -29 10 -6 26 -26 35 -46 9 -19 19 -35 22
-35 9 0 -9 55 -23 68 -7 7 -13 21 -13 30 0 14 -2 15 -9 3 -13 -20 -26 29 -17
64 4 14 4 25 1 25 -2 0 -8 -12 -11 -26z"/>
<path d="M4880 2850 c34 -11 60 -11 35 0 -11 5 -29 8 -40 8 -16 0 -15 -2 5 -8z"/>
<path d="M2130 2836 c0 -8 7 -16 15 -20 8 -3 15 -1 15 4 0 6 -5 10 -11 10 -5
0 -7 5 -4 10 3 6 1 10 -4 10 -6 0 -11 -6 -11 -14z"/>
<path d="M2745 2838 c11 -6 27 -16 35 -22 9 -6 5 -1 -8 12 -13 12 -28 22 -35
22 -7 0 -3 -6 8 -12z"/>
<path d="M560 2762 c0 -17 68 -60 120 -76 55 -17 130 -27 130 -16 0 4 -23 10
-51 13 -53 6 -151 46 -181 74 -10 9 -18 11 -18 5z"/>
<path d="M2031 2754 c0 -11 3 -14 6 -6 3 7 2 16 -1 19 -3 4 -6 -2 -5 -13z"/>
<path d="M1595 2574 l-30 -26 33 22 c17 12 32 23 32 26 0 7 -4 5 -35 -22z"/>
<path d="M1658 2545 c-4 -18 -2 -23 4 -17 6 6 18 8 27 5 13 -4 13 -3 2 5 -7 5
-17 15 -21 22 -5 7 -9 2 -12 -15z"/>
<path d="M1593 2468 c-15 -20 -25 -38 -20 -38 3 0 12 11 21 25 17 26 16 35 -1
13z"/>
<path d="M837 2120 c3 -11 14 -20 24 -20 25 0 24 4 -5 23 -23 15 -24 15 -19
-3z"/>
<path d="M5050 2136 c0 -3 9 -10 20 -16 11 -6 20 -8 20 -6 0 3 -9 10 -20 16
-11 6 -20 8 -20 6z"/>
<path d="M1035 2090 c-4 -7 3 -8 22 -4 38 9 42 14 10 14 -14 0 -29 -5 -32 -10z"/>
<path d="M834 2065 c11 -8 33 -15 49 -15 21 0 28 -4 24 -14 -10 -25 21 -39 98
-44 54 -3 72 -8 69 -17 -8 -20 15 -29 74 -27 l55 1 -19 -20 c-14 -16 -6 -13
31 10 28 17 60 32 73 34 22 3 118 65 111 71 -2 2 -38 -2 -79 -9 -129 -22 -238
-25 -255 -8 -8 8 -15 10 -15 4 0 -5 8 -15 18 -20 13 -8 6 -10 -33 -11 -53 0
-139 20 -117 27 25 9 12 33 -17 33 -16 0 -42 5 -58 10 -26 9 -27 9 -9 -5z
m514 -51 c-33 -33 -268 -74 -268 -46 0 19 52 35 148 43 58 5 108 12 111 14 2
3 9 5 15 5 6 0 3 -7 -6 -16z"/>
<path d="M4840 2075 c0 -5 5 -17 10 -25 5 -8 10 -10 10 -5 0 6 -5 17 -10 25
-5 8 -10 11 -10 5z"/>
<path d="M1292 1950 c3 -10 20 -15 54 -16 41 -1 43 -1 9 3 -22 3 -46 10 -54
16 -11 10 -13 9 -9 -3z"/>
</g>
</svg>
